<svg width="2048" height="100" viewBox="0 0 2048 100" fill="none" xmlns="http://www.w3.org/2000/svg">
<path d="M45 0H95L50 100H0L45 0Z" fill="white"/>
<path d="M171 0H221L176 100H126L171 0Z" fill="white"/>
<path d="M297 0H347L302 100H252L297 0Z" fill="white"/>
<path d="M423 0H473L428 100H378L423 0Z" fill="white"/>
<path d="M549 0H599L554 100H504L549 0Z" fill="white"/>
<path d="M675 0H725L680 100H630L675 0Z" fill="white"/>
<path d="M801 0H851L806 100H756L801 0Z" fill="white"/>
<path d="M927 0H977L932 100H882L927 0Z" fill="white"/>
<path d="M1053 0H1103L1058 100H1008L1053 0Z" fill="white"/>
<path d="M1179 0H1229L1184 100H1134L1179 0Z" fill="white"/>
<path d="M1305 0H1355L1310 100H1260L1305 0Z" fill="white"/>
<path d="M1431 0H1481L1436 100H1386L1431 0Z" fill="white"/>
<path d="M1557 0H1607L1562 100H1512L1557 0Z" fill="white"/>
<path d="M1683 0H1733L1688 100H1638L1683 0Z" fill="white"/>
<path d="M1809 0H1859L1814 100H1764L1809 0Z" fill="white"/>
<path d="M1935 0H1985L1940 100H1890L1935 0Z" fill="white"/>
<path d="M108 0H158L113 100H63L108 0Z" fill="white"/>
<path d="M234 0H284L239 100H189L234 0Z" fill="white"/>
<path d="M360 0H410L365 100H315L360 0Z" fill="white"/>
<path d="M486 0H536L491 100H441L486 0Z" fill="white"/>
<path d="M612 0H662L617 100H567L612 0Z" fill="white"/>
<path d="M738 0H788L743 100H693L738 0Z" fill="white"/>
<path d="M864 0H914L869 100H819L864 0Z" fill="white"/>
<path d="M990 0H1040L995 100H945L990 0Z" fill="white"/>
<path d="M1116 0H1166L1121 100H1071L1116 0Z" fill="white"/>
<path d="M1242 0H1292L1247 100H1197L1242 0Z" fill="white"/>
<path d="M1368 0H1418L1373 100H1323L1368 0Z" fill="white"/>
<path d="M1494 0H1544L1499 100H1449L1494 0Z" fill="white"/>
<path d="M1620 0H1670L1625 100H1575L1620 0Z" fill="white"/>
<path d="M1746 0H1796L1751 100H1701L1746 0Z" fill="white"/>
<path d="M1872 0H1922L1877 100H1827L1872 0Z" fill="white"/>
<path d="M1998 0H2048L2003 100H1953L1998 0Z" fill="white"/>
</svg>
